<svg xmlns="http://www.w3.org/2000/svg" xmlns:xlink="http://www.w3.org/1999/xlink" width="341" zoomAndPan="magnify" viewBox="0 0 255.75 351.74999" height="469" preserveAspectRatio="xMidYMid meet" version="1.0"><defs><g/><clipPath id="c9a927b5ef"><path d="M 0 0.046875 L 254.75 0.046875 L 254.75 350.703125 L 0 350.703125 Z M 0 0.046875 " clip-rule="nonzero"/></clipPath></defs><g clip-path="url(#c9a927b5ef)"><path fill="#ffffff" d="M 37.640625 0.96875 L 39.210938 0.96875 L 39.210938 91.921875 L 77.628906 62.128906 C 100.230469 78.988281 113.304688 89.445312 116.832031 93.492188 L 78.414062 124.070312 L 117.617188 155.429688 L 117.617188 319.476562 C 115 322.609375 101.933594 333.066406 78.414062 350.835938 L 77.628906 350.835938 L 76.84375 339.078125 L 76.84375 186.007812 L 39.203125 155.429688 L 39.203125 216.59375 L 0.785156 247.171875 L 0 247.171875 L 0 31.546875 C 1.695312 29.320312 14.242188 19.132812 37.640625 0.96875 Z M 39.203125 94.269531 L 39.203125 153.859375 L 76.84375 124.847656 L 76.84375 124.0625 L 39.988281 94.261719 L 39.203125 94.261719 Z M 174.851562 0.183594 L 176.421875 0.183594 L 176.421875 91.136719 L 214.839844 61.335938 L 215.625 61.335938 L 254.828125 92.699219 L 254.828125 184.4375 L 176.421875 247.164062 L 137.21875 215.800781 L 137.21875 30.757812 C 138.910156 28.542969 151.453125 18.347656 174.851562 0.183594 Z M 176.421875 92.707031 L 176.421875 184.445312 L 214.839844 215.023438 L 214.839844 124.070312 Z M 176.421875 92.707031 " fill-opacity="1" fill-rule="nonzero"/></g><g fill="#ffffff" fill-opacity="1"><g transform="translate(80.516298, 145.138931)"><g><path d="M 2.09375 0.078125 C 1.800781 0.078125 1.566406 -0.00390625 1.390625 -0.171875 C 1.222656 -0.335938 1.140625 -0.554688 1.140625 -0.828125 C 1.140625 -1.097656 1.222656 -1.320312 1.390625 -1.5 C 1.566406 -1.675781 1.800781 -1.765625 2.09375 -1.765625 C 2.394531 -1.765625 2.628906 -1.679688 2.796875 -1.515625 C 2.972656 -1.347656 3.0625 -1.125 3.0625 -0.84375 C 3.0625 -0.570312 2.972656 -0.347656 2.796875 -0.171875 C 2.628906 -0.00390625 2.394531 0.078125 2.09375 0.078125 Z M 2.09375 0.078125 "/></g></g></g></svg>